<svg width="96" height="96" xmlns="http://www.w3.org/2000/svg" xmlns:xlink="http://www.w3.org/1999/xlink" xml:space="preserve" overflow="hidden"><g transform="translate(-275 -247)"><path d="M304 273C305.7 273 307 271.7 307 270L307 264C307 262.3 305.7 261 304 261 302.3 261 301 262.3 301 264L301 270C301 271.7 302.3 273 304 273Z" fill="#64748B"/><path d="M295 315 311 315 311 323 295 323 295 315ZM295 303 311 303 311 311 295 311 295 303ZM295 291 311 291 311 299 295 299 295 291ZM331 291 331 299 315 299 315 291 331 291ZM351 291 351 299 335 299 335 291 351 291ZM351 311 335 311 335 303 351 303 351 311ZM351 323 335 323 335 315 351 315 351 323ZM315 311 315 303 331 303 331 311 315 311ZM315 323 315 315 331 315 331 323 315 323ZM289 329 357 329 357 285 289 285 289 329Z" fill="#64748B"/><path d="M342 273C343.7 273 345 271.7 345 270L345 264C345 262.3 343.7 261 342 261 340.3 261 339 262.3 339 264L339 270C339 271.7 340.3 273 342 273Z" fill="#64748B"/><path d="M349 267 349 270C349 273.9 345.9 277 342 277 338.1 277 335 273.9 335 270L335 267 311 267 311 270C311 273.9 307.9 277 304 277 300.1 277 297 273.9 297 270L297 267 289 267 289 281 357 281 357 267 349 267Z" fill="#64748B"/></g></svg>