<svg xmlns="http://www.w3.org/2000/svg" viewBox="0 0 512 512" role="img" aria-labelledby="title desc">
  <title id="title">Portfolio Tracker Icon</title>
  <desc id="desc">An orange circle with an upward trending arrow</desc>
  <defs>
    <linearGradient id="orange" x1="0" x2="1" y1="0" y2="1">
      <stop offset="0%" stop-color="#ff7a3c" />
      <stop offset="100%" stop-color="#ff682b" />
    </linearGradient>
  </defs>
  <g fill="url(#orange)">
    <circle cx="256" cy="256" r="240" />
    <path d="M83 384c11 21 24 40 39 59l204-171 68 78 176-149-25-30-149 126-68-78-246 208Z" />
    <path d="M448.6 61.1c-3.3 1.2-6.6 3.8-10 6.9L288 196 224 121 48 268.3c1.5 28.2 6 55.8 14 82.3l221.3-188.2L346 176l178.9-148.7c-24.4 2.3-48.8 4.7-73.2 7.1-1.1.1-2.2.4-3.1.7Z" />
    <path d="m346 176 48.4-40.2 43.9 52.3L512 32l-144.3 12.7 43.9 52.4-48.4 40.2 17.2 20.7-34.4-41.3Z" />
  </g>
</svg>
