<svg width="96" height="96" xmlns="http://www.w3.org/2000/svg" xmlns:xlink="http://www.w3.org/1999/xlink" xml:space="preserve" overflow="hidden"><g transform="translate(-445 -267)"><path d="M469 307.005C473.971 307.005 478 302.976 478 298.005 478 293.034 473.971 289.005 469 289.005 464.029 289.005 460 293.034 460 298.005 460 302.976 464.029 307.005 469 307.005ZM469 291C472.866 291 476 294.134 476 298 476 301.866 472.866 305 469 305 465.134 305 462 301.866 462 298 462.005 294.136 465.136 291.005 469 291Z" stroke="#64748B" stroke-width="1.33333" fill="#64748B"/><path d="M517 307.005C521.971 307.005 526 302.976 526 298.005 526 293.034 521.971 289.005 517 289.005 512.029 289.005 508 293.034 508 298.005 508 302.976 512.029 307.005 517 307.005ZM517 291C520.866 291 524 294.134 524 298 524 301.866 520.866 305 517 305 513.134 305 510 301.866 510 298 510.005 294.136 513.136 291.005 517 291Z" stroke="#64748B" stroke-width="1.33333" fill="#64748B"/><path d="M532.9 314.489C530.351 312.501 527.401 311.092 524.253 310.358 521.897 309.654 519.458 309.262 517 309.19 514.543 309.193 512.103 309.585 509.769 310.353 508.11 310.783 506.503 311.395 504.979 312.178 504.954 313 504.845 313.818 504.651 314.618 506.429 313.584 508.339 312.795 510.329 312.272 512.482 311.565 514.733 311.199 517 311.19 519.286 311.264 521.553 311.633 523.744 312.29 526.625 312.952 529.325 314.237 531.656 316.055L531.742 316.119C532.565 316.712 533.036 317.677 533 318.69L533 326.19 535 326.19 535 318.69C535.036 317.029 534.251 315.457 532.9 314.489Z" stroke="#64748B" stroke-width="1.33333" fill="#64748B"/><path d="M481.307 314.463C481.125 313.673 481.024 312.866 481.007 312.055 479.481 311.335 477.888 310.765 476.251 310.355 473.895 309.652 471.457 309.261 469 309.19 466.543 309.193 464.103 309.585 461.769 310.353 458.639 311.206 455.689 312.619 453.062 314.522 451.768 315.518 451.01 317.057 451.008 318.69L451.008 326.19 453.008 326.19 453.008 318.69C453.01 317.681 453.478 316.729 454.276 316.112 456.709 314.359 459.439 313.058 462.333 312.272 464.485 311.565 466.735 311.2 469 311.19 471.286 311.264 473.553 311.633 475.744 312.29 477.686 312.766 479.556 313.497 481.307 314.463Z" stroke="#64748B" stroke-width="1.33333" fill="#64748B"/><path d="M508.9 328.3C506.351 326.312 503.401 324.902 500.253 324.169 497.896 323.465 495.458 323.073 493 323 490.544 323.002 488.104 323.395 485.771 324.163 482.641 325.016 479.691 326.428 477.064 328.332 475.766 329.326 475.004 330.866 475 332.5L475 340 477 340 477 332.5C477.002 331.491 477.47 330.539 478.269 329.922 480.702 328.168 483.431 326.868 486.325 326.082 488.48 325.374 490.732 325.009 493 325 495.286 325.073 497.554 325.443 499.745 326.1 502.625 326.761 505.326 328.046 507.656 329.864L507.742 329.928C508.565 330.521 509.037 331.486 509 332.5L509 340 511 340 511 332.5C511.036 330.839 510.25 329.268 508.9 328.3Z" stroke="#64748B" stroke-width="1.33333" fill="#64748B"/><path d="M493 320.815C497.971 320.815 502 316.786 502 311.815 502 306.844 497.971 302.815 493 302.815 488.029 302.815 484 306.844 484 311.815 484 316.786 488.029 320.815 493 320.815ZM493 304.815C496.866 304.815 500 307.949 500 311.815 500 315.681 496.866 318.815 493 318.815 489.134 318.815 486 315.681 486 311.815 486.003 307.949 489.134 304.815 493 304.81Z" stroke="#64748B" stroke-width="1.33333" fill="#64748B"/></g></svg>